<svg width="375" height="374.999991" xmlns="http://www.w3.org/2000/svg" version="1.0" preserveAspectRatio="xMidYMid meet" zoomAndPan="magnify">

 <g>
  <title>Layer 1</title>
  <path id="svg_1" fill-rule="nonzero" d="m337.35938,186.46094c0,82.63672 -67.26172,149.89844 -149.89844,149.89844c-82.63281,0 -149.89453,-67.26172 -149.89453,-149.89844c0,-82.63281 67.26172,-149.89453 149.89453,-149.89453c82.63672,0 149.89844,67.26172 149.89844,149.89453zm33.36718,39.36719c-1.5,7.05078 -3.44922,13.875 -5.69922,20.62109c-19.49609,2.25 -22.79687,9.97266 -10.72265,25.42187c-3.22656,6.22266 -6.67578,12.22266 -10.57422,18.07032c-19.34375,-3 -24.44531,3.60156 -16.64453,21.51953c-4.65235,5.17578 -9.52344,10.05078 -14.69922,14.69922c-17.92188,-7.80078 -24.51953,-2.69922 -21.51953,16.64453c-5.77344,3.82422 -11.84766,7.35156 -18.07031,10.57422c-15.375,-11.9961 -23.17188,-8.69922 -25.42188,10.72265c-6.67187,2.25 -13.57031,4.19922 -20.62109,5.69922c-11.9961,-15.59765 -20.69532,-14.39844 -28.26953,3.82422c-3.67188,0.22656 -7.34766,0.375 -11.09766,0.375c-3.75,0 -7.42188,-0.14844 -11.09766,-0.375c-7.57422,-18.22266 -16.26953,-19.42187 -28.26953,-3.82422c-7.04687,-1.5 -13.87109,-3.44922 -20.62109,-5.69922c-2.17188,-19.49609 -9.97266,-22.79687 -25.41797,-10.72265c-6.22656,-3.22266 -12.22266,-6.67188 -18.07422,-10.57422c3,-19.34375 -3.59766,-24.44531 -21.51953,-16.64453c-5.17188,-4.64844 -10.04688,-9.52344 -14.69531,-14.69922c7.79687,-17.91797 2.69922,-24.51953 -16.64844,-21.51953c-3.82422,-5.77344 -7.34766,-11.84766 -10.57031,-18.07032c11.99609,-15.37109 8.69531,-23.17187 -10.72657,-25.42187c-2.24609,-6.67188 -4.19531,-13.57031 -5.69531,-20.62109c15.59375,-11.9961 14.39453,-20.69532 -3.82422,-28.26954c-0.07812,-3.67187 -0.22656,-7.34765 -0.22656,-11.09765c0,-3.7461 0.14844,-7.42188 0.375,-11.09766c18.22266,-7.57031 19.42188,-16.26953 3.82422,-28.26953c1.5,-7.04687 3.44922,-13.87109 5.69922,-20.62109c19.49609,-2.17188 22.71875,-9.97266 10.72265,-25.41797c3.22266,-6.22266 6.67188,-12.22266 10.57422,-18.07031c19.34375,3 24.44532,-3.60157 16.64453,-21.52344c4.64844,-5.17188 9.52344,-10.04688 14.69922,-14.69531c17.91797,7.79687 24.51953,2.69921 21.51953,-16.64844c5.77344,-3.82422 11.84766,-7.34766 18.07032,-10.57031c15.37109,11.99609 23.17187,8.69921 25.42187,-10.72266c6.67188,-2.25 13.57031,-4.19922 20.6211,-5.69922c11.99609,15.59766 20.69531,14.39453 28.26953,-3.82422c3.59765,-0.15234 7.27343,-0.30078 11.01953,-0.30078c3.75,0 7.42578,0.14844 11.09765,0.375c7.57422,18.22266 16.27344,19.42188 28.26954,3.82422c7.05078,1.5 13.875,3.44922 20.62109,5.69922c2.17578,19.49609 9.97266,22.71875 25.42187,10.72265c6.22266,3.22266 12.22266,6.67188 18.07032,10.57422c-3,19.34375 3.60156,24.44532 21.51953,16.64453c5.17578,4.64844 10.05078,9.52344 14.69922,14.69922c-7.80078,17.91797 -2.69922,24.51953 16.64453,21.51953c3.82422,5.77344 7.35156,11.84766 10.57422,18.07032c-11.9961,15.37109 -8.69922,23.17187 10.72265,25.42187c2.25,6.67188 4.19922,13.57031 5.69922,20.6211c-15.59765,11.99609 -14.39844,20.69531 3.82422,28.26953c0.22656,3.67187 0.375,7.34765 0.375,11.09765c0,3.7461 -0.14844,7.42188 -0.375,11.09766c-18.29687,7.57031 -19.49609,16.19531 -3.89844,28.19141zm-28.26953,-86.23047c0.97266,3.22265 1.875,6.59765 2.625,9.89843l21.59375,-5.77343l-2.625,-9.89844l-21.59375,5.77344zm-17.47265,-38.46875c1.80078,2.92578 3.52343,5.84765 5.17578,8.84765l19.34375,-11.17187l-5.09766,-8.84766l-19.42187,11.17188zm-26.76954,-32.69141c2.47657,2.32422 4.875,4.72266 7.27344,7.27344l15.82422,-15.89844l-7.27344,-7.27344l-15.82422,15.89844zm-34.26953,-24.67187c3,1.64843 6,3.375 8.85157,5.17578l11.17187,-19.42188l-8.84766,-5.10156l-11.17578,19.34766zm-39.58984,-14.92188c3.375,0.75 6.67187,1.64844 9.89844,2.625l5.77343,-21.59766l-9.82421,-2.62109l-5.84766,21.59375zm-41.99219,-4.125c1.72656,-0.07422 3.375,-0.14844 5.09766,-0.14844c1.72656,0 3.44922,0.07422 5.10156,0.14844l0,-22.49609l-10.27344,0l0,22.49609l0.07422,0zm-47.53906,-14.84766l5.77344,21.59766c3.22265,-0.97656 6.59765,-1.875 9.89843,-2.625l-5.77343,-21.59375l-9.89844,2.62109zm-43.86719,19.64844l11.17188,19.42188c2.92578,-1.80078 5.84765,-3.52735 8.84765,-5.17578l-11.17187,-19.42188l-8.84766,5.17578zm-37.34375,30.29297l15.89844,15.89844c2.32422,-2.47656 4.72266,-4.875 7.27344,-7.27344l-15.97266,-15.82422l-7.19922,7.19922zm-8.84765,50.16406c1.64843,-3 3.375,-5.92187 5.17578,-8.84765l-19.42188,-11.17188l-5.10156,8.84766l19.34766,11.17187zm-14.92188,39.59375c0.75,-3.375 1.64844,-6.67578 2.625,-9.89843l-21.59766,-5.77344l-2.69921,9.82422l21.67187,5.84765zm-4.125,41.99219c-0.07422,-1.72656 -0.14844,-3.375 -0.14844,-5.10156c0,-1.72266 0.07422,-3.44922 0.14844,-5.09766l-22.49609,0l0,10.27344l22.49609,0l0,-0.07422zm6.75,41.76563c-0.97656,-3.22266 -1.875,-6.52344 -2.625,-9.89844l-21.67187,5.77344l2.625,9.89843l21.67187,-5.77343zm17.39453,38.46875c-1.79687,-2.92579 -3.52344,-5.85157 -5.17187,-8.85157l-19.34766,11.17578l5.10156,8.84766l19.41797,-11.17187zm26.84766,32.6914c-2.47656,-2.32422 -4.875,-4.72265 -7.27344,-7.27344l-15.89844,15.82422l7.27344,7.27344l15.89844,-15.82422zm34.26562,24.67188c-3,-1.65235 -5.92187,-3.30078 -8.84765,-5.17578l-11.17188,19.42187l8.84766,5.09766l11.17187,-19.34375zm39.51953,14.92187c-3.30078,-0.75 -6.67578,-1.65234 -9.89843,-2.625l-5.77344,21.59375l9.89844,2.625l5.77343,-21.59375zm42.06641,4.125c-1.72656,0.07422 -3.375,0.14844 -5.10156,0.14844c-1.72266,0 -3.44922,-0.07422 -5.09766,-0.14844l0,22.41797l10.27344,0l0,-22.41797l-0.07422,0zm47.53906,14.84375l-5.77343,-21.59375c-3.22266,0.97266 -6.52344,1.875 -9.89844,2.625l5.77344,21.59375l9.89843,-2.625zm43.86719,-19.64453l-11.17187,-19.42187c-2.92579,1.80078 -5.85157,3.52343 -8.85157,5.17578l11.17578,19.34375l8.84766,-5.09766zm37.34375,-30.29297l-15.82422,-15.82422c-2.32422,2.47657 -4.72265,4.875 -7.27344,7.27344l15.82422,15.82422l7.27344,-7.27344zm19.19531,-126.65234c0,-84.35547 -68.6875,-153.04297 -153.04687,-153.04297c-84.35547,0 -153.04297,68.6875 -153.04297,153.04297c0,84.35937 68.6875,153.04687 153.04297,153.04687c84.35937,0 153.04687,-68.6875 153.04687,-153.04687zm-10.34765,76.48437c-1.65235,3 -3.375,6 -5.17578,8.85157l19.42187,11.17187l5.09766,-8.84766l-19.34375,-11.17578zm14.92187,-39.58984c-0.75,3.375 -1.65234,6.67187 -2.625,9.89844l21.59375,5.77343l2.625,-9.82421l-21.59375,-5.84766zm26.54297,-31.79297l0,-10.27344l-22.41797,0c0.07422,1.72266 0.14844,3.375 0.14844,5.09766c0,1.72656 -0.07422,3.44922 -0.14844,5.10156l22.41797,0l0,0.07422zm0,0" fill="#f1f1f1"/>
 </g>
</svg>