<svg xmlns="http://www.w3.org/2000/svg" xmlns:xlink="http://www.w3.org/1999/xlink" width="500" zoomAndPan="magnify" viewBox="0 0 375 374.999991" height="500" preserveAspectRatio="xMidYMid meet" version="1.0"><path fill="#231f20" d="M 337.359375 187.460938 C 337.359375 270.097656 270.097656 337.359375 187.460938 337.359375 C 104.828125 337.359375 37.566406 270.097656 37.566406 187.460938 C 37.566406 104.828125 104.828125 37.566406 187.460938 37.566406 C 270.097656 37.566406 337.359375 104.828125 337.359375 187.460938 Z M 370.726562 226.828125 C 369.226562 233.878906 367.277344 240.703125 365.027344 247.449219 C 345.53125 249.699219 342.230469 257.421875 354.304688 272.871094 C 351.078125 279.09375 347.628906 285.09375 343.730469 290.941406 C 324.386719 287.941406 319.285156 294.542969 327.085938 312.460938 C 322.433594 317.636719 317.5625 322.511719 312.386719 327.160156 C 294.464844 319.359375 287.867188 324.460938 290.867188 343.804688 C 285.09375 347.628906 279.019531 351.15625 272.796875 354.378906 C 257.421875 342.382812 249.625 345.679688 247.375 365.101562 C 240.703125 367.351562 233.804688 369.300781 226.753906 370.800781 C 214.757812 355.203125 206.058594 356.402344 198.484375 374.625 C 194.8125 374.851562 191.136719 375 187.386719 375 C 183.636719 375 179.964844 374.851562 176.289062 374.625 C 168.714844 356.402344 160.019531 355.203125 148.019531 370.800781 C 140.972656 369.300781 134.148438 367.351562 127.398438 365.101562 C 125.226562 345.605469 117.425781 342.304688 101.980469 354.378906 C 95.753906 351.15625 89.757812 347.707031 83.90625 343.804688 C 86.90625 324.460938 80.308594 319.359375 62.386719 327.160156 C 57.214844 322.511719 52.339844 317.636719 47.691406 312.460938 C 55.488281 294.542969 50.390625 287.941406 31.042969 290.941406 C 27.21875 285.167969 23.695312 279.09375 20.472656 272.871094 C 32.46875 257.5 29.167969 249.699219 9.746094 247.449219 C 7.5 240.777344 5.550781 233.878906 4.050781 226.828125 C 19.644531 214.832031 18.445312 206.132812 0.226562 198.558594 C 0.148438 194.886719 0 191.210938 0 187.460938 C 0 183.714844 0.148438 180.039062 0.375 176.363281 C 18.597656 168.792969 19.796875 160.09375 4.199219 148.09375 C 5.699219 141.046875 7.648438 134.222656 9.898438 127.472656 C 29.394531 125.300781 32.617188 117.5 20.621094 102.054688 C 23.84375 95.832031 27.292969 89.832031 31.195312 83.984375 C 50.539062 86.984375 55.640625 80.382812 47.839844 62.460938 C 52.488281 57.289062 57.363281 52.414062 62.539062 47.765625 C 80.457031 55.5625 87.058594 50.464844 84.058594 31.117188 C 89.832031 27.292969 95.90625 23.769531 102.128906 20.546875 C 117.5 32.542969 125.300781 29.246094 127.550781 9.824219 C 134.222656 7.574219 141.121094 5.625 148.171875 4.125 C 160.167969 19.722656 168.867188 18.519531 176.441406 0.300781 C 180.039062 0.148438 183.714844 0 187.460938 0 C 191.210938 0 194.886719 0.148438 198.558594 0.375 C 206.132812 18.597656 214.832031 19.796875 226.828125 4.199219 C 233.878906 5.699219 240.703125 7.648438 247.449219 9.898438 C 249.625 29.394531 257.421875 32.617188 272.871094 20.621094 C 279.09375 23.84375 285.09375 27.292969 290.941406 31.195312 C 287.941406 50.539062 294.542969 55.640625 312.460938 47.839844 C 317.636719 52.488281 322.511719 57.363281 327.160156 62.539062 C 319.359375 80.457031 324.460938 87.058594 343.804688 84.058594 C 347.628906 89.832031 351.15625 95.90625 354.378906 102.128906 C 342.382812 117.5 345.679688 125.300781 365.101562 127.550781 C 367.351562 134.222656 369.300781 141.121094 370.800781 148.171875 C 355.203125 160.167969 356.402344 168.867188 374.625 176.441406 C 374.851562 180.113281 375 183.789062 375 187.539062 C 375 191.285156 374.851562 194.960938 374.625 198.636719 C 356.328125 206.207031 355.128906 214.832031 370.726562 226.828125 Z M 342.457031 140.597656 C 343.429688 143.820312 344.332031 147.195312 345.082031 150.496094 L 366.675781 144.722656 L 364.050781 134.824219 Z M 324.984375 102.128906 C 326.785156 105.054688 328.507812 107.976562 330.160156 110.976562 L 349.503906 99.804688 L 344.40625 90.957031 Z M 298.214844 69.4375 C 300.691406 71.761719 303.089844 74.160156 305.488281 76.710938 L 321.3125 60.8125 L 314.039062 53.539062 Z M 263.945312 44.765625 C 266.945312 46.414062 269.945312 48.140625 272.796875 49.941406 L 283.96875 30.519531 L 275.121094 25.417969 Z M 224.355469 29.84375 C 227.730469 30.59375 231.027344 31.492188 234.253906 32.46875 L 240.027344 10.871094 L 230.203125 8.25 Z M 182.363281 25.71875 C 184.089844 25.644531 185.738281 25.570312 187.460938 25.570312 C 189.1875 25.570312 190.910156 25.644531 192.5625 25.71875 L 192.5625 3.222656 L 182.289062 3.222656 L 182.289062 25.71875 Z M 134.824219 10.871094 L 140.597656 32.46875 C 143.820312 31.492188 147.195312 30.59375 150.496094 29.84375 L 144.722656 8.25 Z M 90.957031 30.519531 L 102.128906 49.941406 C 105.054688 48.140625 107.976562 46.414062 110.976562 44.765625 L 99.804688 25.34375 Z M 53.613281 60.8125 L 69.511719 76.710938 C 71.835938 74.234375 74.234375 71.835938 76.785156 69.4375 L 60.8125 53.613281 Z M 44.765625 110.976562 C 46.414062 107.976562 48.140625 105.054688 49.941406 102.128906 L 30.519531 90.957031 L 25.417969 99.804688 Z M 29.84375 150.570312 C 30.59375 147.195312 31.492188 143.894531 32.46875 140.671875 L 10.871094 134.898438 L 8.171875 144.722656 Z M 25.71875 192.5625 C 25.644531 190.835938 25.570312 189.1875 25.570312 187.460938 C 25.570312 185.738281 25.644531 184.011719 25.71875 182.363281 L 3.222656 182.363281 L 3.222656 192.636719 L 25.71875 192.636719 Z M 32.46875 234.328125 C 31.492188 231.105469 30.59375 227.804688 29.84375 224.429688 L 8.171875 230.203125 L 10.796875 240.101562 Z M 49.863281 272.796875 C 48.066406 269.871094 46.339844 266.945312 44.691406 263.945312 L 25.34375 275.121094 L 30.445312 283.96875 Z M 76.710938 305.488281 C 74.234375 303.164062 71.835938 300.765625 69.4375 298.214844 L 53.539062 314.039062 L 60.8125 321.3125 Z M 110.976562 330.160156 C 107.976562 328.507812 105.054688 326.859375 102.128906 324.984375 L 90.957031 344.40625 L 99.804688 349.503906 Z M 150.496094 345.082031 C 147.195312 344.332031 143.820312 343.429688 140.597656 342.457031 L 134.824219 364.050781 L 144.722656 366.675781 Z M 192.5625 349.207031 C 190.835938 349.28125 189.1875 349.355469 187.460938 349.355469 C 185.738281 349.355469 184.011719 349.28125 182.363281 349.207031 L 182.363281 371.625 L 192.636719 371.625 L 192.636719 349.207031 Z M 240.101562 364.050781 L 234.328125 342.457031 C 231.105469 343.429688 227.804688 344.332031 224.429688 345.082031 L 230.203125 366.675781 Z M 283.96875 344.40625 L 272.796875 324.984375 C 269.871094 326.785156 266.945312 328.507812 263.945312 330.160156 L 275.121094 349.503906 Z M 321.3125 314.113281 L 305.488281 298.289062 C 303.164062 300.765625 300.765625 303.164062 298.214844 305.5625 L 314.039062 321.386719 Z M 340.507812 187.460938 C 340.507812 103.105469 271.820312 34.417969 187.460938 34.417969 C 103.105469 34.417969 34.417969 103.105469 34.417969 187.460938 C 34.417969 271.820312 103.105469 340.507812 187.460938 340.507812 C 271.820312 340.507812 340.507812 271.820312 340.507812 187.460938 Z M 330.160156 263.945312 C 328.507812 266.945312 326.785156 269.945312 324.984375 272.796875 L 344.40625 283.96875 L 349.503906 275.121094 Z M 345.082031 224.355469 C 344.332031 227.730469 343.429688 231.027344 342.457031 234.253906 L 364.050781 240.027344 L 366.675781 230.203125 Z M 371.625 192.5625 L 371.625 182.289062 L 349.207031 182.289062 C 349.28125 184.011719 349.355469 185.664062 349.355469 187.386719 C 349.355469 189.113281 349.28125 190.835938 349.207031 192.488281 L 371.625 192.488281 Z M 371.625 192.5625 " fill-opacity="1" fill-rule="nonzero"/></svg>