<svg xmlns="http://www.w3.org/2000/svg" xmlns:xlink="http://www.w3.org/1999/xlink" width="500" zoomAndPan="magnify" viewBox="0 0 375 374.999991" height="500" preserveAspectRatio="xMidYMid meet" version="1.0"><defs><g/></defs><g fill="#ffffff" fill-opacity="1"><g transform="translate(92.675581, 191.041203)"><g><path d="M -8.15625 -67.5 L -5.6875 -68.03125 L -4 -64.09375 C -2.34375 -64.4375 -1.6875 -65.429688 -2.03125 -67.078125 L -1.21875 -67.25 L 0.765625 -65.953125 L 1 -60.859375 L 1.8125 -61.015625 L 1.171875 -60.03125 L 1.34375 -59.203125 L 2.328125 -58.53125 L 2.5 -57.71875 L 1.6875 -57.5625 L 2.6875 -56.890625 L 2.859375 -56.078125 L 7.78125 -28.75 L 7.953125 -27.921875 L 8.765625 -28.078125 L 9.515625 -36.859375 L 11.15625 -37.203125 L 8.6875 -20.34375 L 10.328125 -20.6875 L 14.296875 -50.75 L 12.65625 -50.40625 L 11.625 -39.015625 L 9.984375 -38.671875 L 9.796875 -39.484375 L 12.78125 -53.890625 L 13.59375 -54.0625 L 13.9375 -52.40625 L 20.1875 -55.453125 C 22.550781 -55.097656 23.820312 -54.503906 24 -53.671875 L 24.640625 -54.671875 L 27.109375 -55.1875 L 34.59375 -36.140625 L 35.421875 -36.3125 C 34.898438 -38.769531 36.226562 -53.816406 39.40625 -81.453125 L 40.234375 -81.640625 L 41.578125 -79.328125 L 42.40625 -79.5 L 42.0625 -81.15625 L 42.890625 -81.328125 C 46.953125 -82.191406 49.316406 -81.832031 49.984375 -80.25 L 50.328125 -78.609375 L 49.21875 -75.78125 L 49.390625 -74.96875 L 51.015625 -75.3125 L 50.625 -81.234375 L 52.28125 -81.578125 L 54.296875 -80.3125 L 54.46875 -79.484375 L 49.375 -10.875 L 47.09375 -9.5625 L 46.75 -11.1875 L 46.09375 -10.1875 L 45.265625 -10.015625 L 44.265625 -10.65625 C 44.734375 -8.46875 44.144531 -7.203125 42.5 -6.859375 C 38.03125 -6.316406 35.660156 -6.671875 35.390625 -7.921875 L 36.21875 -8.09375 C 35.082031 -10.738281 33.578125 -12.429688 31.703125 -13.171875 L 24.578125 -30.59375 C 23.648438 -30.351562 21.984375 -21.96875 19.578125 -5.4375 L 16.34375 -0.46875 L 15.515625 -0.296875 L 13.984375 -3.390625 C 19.453125 -19.054688 21.582031 -30.691406 20.375 -38.296875 C 19.226562 -36.523438 17.40625 -27.539062 14.90625 -11.34375 C 14.21875 -11.195312 13.816406 -7.675781 13.703125 -0.78125 L 6.296875 0.796875 L 4.765625 -2.3125 L 4.109375 -1.3125 L 3.296875 -1.140625 C 2.671875 -4.117188 1.382812 -6.140625 -0.5625 -7.203125 L -1.25 -10.484375 L 2.546875 -8.734375 L -2.046875 -22.375 L -1.40625 -23.375 L -2.40625 -24.03125 L -1.75 -25.03125 L -2.578125 -24.859375 L -1.921875 -25.828125 L -4.359375 -37.359375 L -4.40625 -41.640625 L -5.21875 -41.46875 L -4.59375 -42.46875 L -9.109375 -63.875 L -10.09375 -64.515625 L -10.265625 -65.34375 Z M 40.28125 -77.34375 C 37.507812 -50.425781 36.445312 -35.4375 37.09375 -32.375 L 37.265625 -31.546875 L 38.09375 -31.71875 L 41.9375 -77.703125 Z M 45.53125 -45.34375 L 45.46875 -37.578125 L 45.640625 -36.75 L 46.46875 -36.921875 L 46.53125 -44.6875 L 46.359375 -45.515625 Z M 44.78125 -24.546875 L 44.703125 -16.78125 L 45.046875 -15.125 L 45.875 -15.296875 L 45.765625 -23.890625 L 45.59375 -24.71875 Z M 44.78125 -24.546875 "/></g></g></g><g fill="#ffffff" fill-opacity="1"><g transform="translate(153.665629, 178.148433)"><g><path d="M 5.078125 -68.125 C 5.285156 -66.445312 6.488281 -65.84375 8.6875 -66.3125 L 10.890625 -63.328125 L 10.1875 -62.34375 L 11.015625 -62.515625 C 9.523438 -50.054688 9.957031 -36.101562 12.3125 -20.65625 L 13.078125 -15.65625 L 14.078125 -15.015625 L 14.203125 -14.1875 L 13.5 -13.171875 L 14.3125 -13.34375 L 13.625 -12.328125 L 15.328125 -6.671875 L 15.578125 -5.03125 C 13.398438 -0.84375 12.445312 2.234375 12.71875 4.203125 L 9.4375 4.890625 L 5.109375 4.078125 L 5.0625 -1.9375 L 1.203125 -4.546875 L 0.09375 -17.21875 L -2.203125 -32.21875 L -0.9375 -35.046875 L -1.4375 -38.375 L -2.390625 -39.03125 L -2.515625 -39.875 L -0.859375 -40.21875 L -0.984375 -41.046875 L -1.9375 -41.71875 L -1.90625 -58.046875 L -2.734375 -57.875 L -2.03125 -58.890625 L -2.828125 -63.875 L -3.78125 -64.546875 L -3.890625 -65.359375 Z M -0.890625 -51.390625 L 0.03125 -45.5625 L 0.859375 -45.734375 L -0.078125 -51.5625 Z M -0.4375 -42.90625 L 0.328125 -37.90625 L 1.15625 -38.078125 L 0.390625 -43.078125 Z M -0.109375 -35.21875 L 0.671875 -30.234375 L 1.5 -30.40625 L 0.71875 -35.390625 Z M 6.703125 -2.28125 L 7.328125 1.875 L 8.671875 -0.109375 L 8.34375 -2.625 Z M 6.703125 -2.28125 "/></g></g></g><g fill="#ffffff" fill-opacity="1"><g transform="translate(172.981491, 174.065227)"><g><path d="M -1.046875 -67.640625 C 0.046875 -67.867188 0.941406 -66.335938 1.640625 -63.046875 L 3.28125 -63.390625 L 5.40625 -65.5625 L 6.40625 -64.921875 L 12.03125 -17.96875 C 15.164062 -20.351562 24.082031 -24.242188 38.78125 -29.640625 L 39.609375 -29.828125 L 39.78125 -29 C 21.25 -21.8125 12.175781 -17.3125 12.5625 -15.5 L 21.078125 -19.875 L 21.25 -19.046875 L 36.203125 -25.65625 L 36.375 -24.828125 L 37.015625 -25.828125 L 37.84375 -26 L 38.84375 -25.34375 L 42.78125 -27.046875 L 46.078125 -27.75 L 52.015625 -28.140625 L 52.1875 -27.328125 C 52.539062 -25.671875 48.710938 -23.421875 40.703125 -20.578125 L 40.875 -19.765625 L 41.53125 -20.765625 L 42.359375 -20.9375 L 48.296875 -21.34375 L 48.9375 -22.328125 L 49.453125 -19.859375 L 23.6875 -7.53125 L 7.796875 2.6875 L 5.328125 3.21875 L 1.171875 -0.203125 L 0.359375 -0.03125 L 0.171875 -0.859375 C -0.117188 -2.242188 0.800781 -3.289062 2.9375 -4 L 2.421875 -6.484375 L -0.75 -9.25 L -5.28125 -46.96875 L -4.453125 -47.140625 L -3.75 -43.859375 L -3.359375 -37.921875 L -1.71875 -38.28125 L -1.109375 -27.21875 L -0.109375 -26.578125 L -0.234375 -23.109375 L 0.640625 -18.984375 L 1.46875 -19.15625 L -4.46875 -63.484375 C -3.363281 -63.710938 -2.988281 -64.648438 -3.34375 -66.296875 L -2.703125 -67.28125 Z M -1.046875 -67.640625 "/></g></g></g><g fill="#ffffff" fill-opacity="1"><g transform="translate(220.418949, 164.037357)"><g><path d="M -1.53125 -67.28125 L 1.75 -67.984375 L 4.59375 -66.859375 L 10.171875 -68.90625 C 19.691406 -70.925781 29.625 -67.296875 39.96875 -58.015625 L 45.828125 -50.65625 L 45.1875 -49.65625 L 46.859375 -45.71875 L 47.734375 -41.59375 C 50.710938 -27.488281 41.453125 -14.359375 19.953125 -2.203125 L 11.90625 0.359375 C 11.613281 -1.023438 10.347656 -1.613281 8.109375 -1.40625 L 8.796875 1.875 L 6.3125 2.40625 L 5.28125 -2.53125 L 4.28125 -3.171875 L 4.921875 -4.171875 L 4.75 -5 C 0.976562 -6.5625 -1.070312 -8.128906 -1.40625 -9.703125 C -5 -34.910156 -6.082031 -53.601562 -4.65625 -65.78125 L -3.828125 -65.953125 L -2.828125 -65.296875 Z M -3.09375 -58.359375 L -2.15625 -33.625 L -1.984375 -32.796875 L -1.15625 -32.96875 L -1.921875 -56.890625 L -2.265625 -58.53125 Z M 11.3125 -55.375 C 11.539062 -54.289062 10.554688 -53.515625 8.359375 -53.046875 C 8.273438 -42.578125 9.0625 -30.707031 10.71875 -17.4375 C 13.925781 -18.101562 21.578125 -22.585938 33.671875 -30.890625 L 33.5 -31.71875 L 31.859375 -31.359375 C 35.296875 -36.765625 36.503906 -41.890625 35.484375 -46.734375 L 34.953125 -49.203125 C 33.679688 -55.242188 28.816406 -57.9375 20.359375 -57.28125 Z M 27.765625 -58.859375 L 27.9375 -58.046875 L 31.578125 -57.09375 L 31.40625 -57.921875 L 28.578125 -59.03125 Z M 37.609375 -48.921875 L 38.859375 -38.875 L 40.515625 -39.21875 L 40 -41.671875 L 40.125 -45.140625 L 38.4375 -49.09375 Z M 44.765625 -43.546875 L 43.4375 -29.5 L 43.609375 -28.6875 L 44.421875 -28.859375 L 45.921875 -42.078125 L 45.578125 -43.71875 Z M 37.75 -36.03125 L 36.796875 -32.40625 L 37.625 -32.578125 L 38.5625 -36.21875 Z M 35.9375 -20.1875 C 37.1875 -20.65625 38.753906 -22.707031 40.640625 -26.34375 L 40.46875 -27.171875 Z M 18.046875 -11.25 L 18.21875 -10.4375 L 21.53125 -11.125 L 25.296875 -13.640625 L 25.109375 -14.46875 L 24.28125 -14.296875 Z M 11.65625 -9.046875 L 12.96875 -6.75 L 14.625 -7.09375 L 15.9375 -9.078125 L 15.765625 -9.90625 L 14.9375 -9.734375 L 12.625 -8.390625 Z M 3.625 -2.1875 L 4.453125 -2.359375 L 4.625 -1.53125 L 3.34375 0.453125 L 2.515625 0.625 L 2.34375 -0.1875 Z M 3.625 -2.1875 "/></g></g></g><g fill="#ffffff" fill-opacity="1"><g transform="translate(107.938004, 292.661309)"><g><path d="M 19.34375 -74.015625 L 23.578125 -73.609375 L 23.65625 -72.765625 L 19.5 -72.359375 Z M 3.59375 -70.796875 L 6.28125 -69.34375 L 13.65625 -71.765625 L 14.5625 -71 L 15.421875 -71.0625 L 17.828125 -72.125 C 27.265625 -73.113281 34.898438 -69.945312 40.734375 -62.625 C 41.847656 -62.71875 42.546875 -61.378906 42.828125 -58.609375 L 43.421875 -52.71875 L 41.734375 -52.5625 L 41.640625 -53.421875 L 42.265625 -56.015625 L 41.359375 -56.78125 L 42.078125 -57.703125 L 41.15625 -58.46875 L 39.53125 -58.25 C 39.832031 -55.050781 37.378906 -51.148438 32.171875 -46.546875 L 32.25 -45.703125 L 33.09375 -45.828125 C 35.21875 -46.015625 37.882812 -47.675781 41.09375 -50.8125 L 41.296875 -49.125 L 37.546875 -43.703125 C 40.648438 -44.003906 46.117188 -40.046875 53.953125 -31.828125 C 54.566406 -25.691406 46.921875 -17.601562 31.015625 -7.5625 C 24.390625 -2.414062 19.03125 0.367188 14.9375 0.796875 L 13.078125 -0.8125 L 12.25 -0.671875 C 12.4375 1.015625 11.40625 1.953125 9.15625 2.140625 C 9.289062 3.703125 8.90625 4.582031 8 4.78125 L 7.703125 4.84375 C 6.566406 4.957031 5.828125 3.0625 5.484375 -0.84375 L 4.640625 -0.71875 L 4.21875 3.5 L 3.390625 3.578125 C 2.828125 -1.960938 1.703125 -4.640625 0.015625 -4.453125 L -1.125 -7.75 L -0.359375 -8.671875 L -1.34375 -9.421875 L -0.6875 -45.890625 L -1.609375 -46.59375 L -0.75 -46.671875 L -1.671875 -47.375 L -2.0625 -60.046875 L -2.1875 -60.875 L -4.453125 -66.578125 L -3.640625 -66.6875 C -0.929688 -69.019531 1.296875 -70.367188 3.046875 -70.734375 C 3.234375 -70.773438 3.414062 -70.796875 3.59375 -70.796875 Z M 25.34375 -64.484375 L 25.4375 -63.640625 L 32.25 -63.4375 C 32.113281 -64.5625 31.222656 -65.039062 29.578125 -64.875 Z M 11.265625 -52.96875 L 12.734375 -47.203125 L 20.078125 -49.609375 L 20.265625 -47.9375 L 31.296875 -55.765625 L 31.390625 -54.9375 L 26.03125 -49.34375 C 32.4375 -52.65625 35.425781 -56.609375 35 -61.203125 L 33.3125 -61.0625 C 33.570312 -58.28125 32.875 -56.796875 31.21875 -56.609375 L 31.015625 -58.28125 L 30.171875 -58.171875 L 30.796875 -60.8125 L 31.703125 -60.0625 L 32.5625 -60.078125 L 32.484375 -60.921875 C 30.078125 -62.410156 26.628906 -62.914062 22.140625 -62.4375 C 14.335938 -61.695312 10.710938 -58.539062 11.265625 -52.96875 Z M 30.171875 -58.171875 L 30.3125 -57.34375 L 28.75 -55.53125 L 27.9375 -55.421875 Z M 30.53125 -37.90625 L 30.640625 -37.125 L 39.046875 -37.078125 L 39.859375 -37.203125 L 39.796875 -38.0625 L 36.359375 -38.53125 Z M 12.640625 -31.109375 L 13.265625 -15.953125 L 14.171875 -15.1875 L 15.015625 -15.265625 C 19.054688 -15.640625 27.253906 -20.960938 39.609375 -31.234375 L 41.15625 -33.078125 C 40.582031 -35.273438 38.238281 -36.160156 34.125 -35.734375 L 27.421875 -35.125 Z M 42.75 -34.125 L 41.4375 -30.546875 L 44.53125 -33.390625 L 43.59375 -34.140625 Z M 48.953125 -31.34375 C 49.117188 -29.582031 44.566406 -24.335938 35.296875 -15.609375 C 46.398438 -23.015625 51.800781 -28.046875 51.5 -30.703125 L 50.671875 -30.640625 L 49.796875 -31.421875 Z M 48.953125 -31.34375 "/></g></g></g><g fill="#ffffff" fill-opacity="1"><g transform="translate(162.054953, 281.221453)"><g><path d="M 31.9375 -74.109375 L 36.46875 -72.1875 C 36.332031 -67.0625 34.734375 -64.28125 31.671875 -63.84375 L 10.375 -58.328125 L 10.609375 -56.65625 L 14.75 -57.234375 L 19.65625 -58.765625 L 20.609375 -58.015625 L 21.4375 -58.125 L 27.140625 -59.84375 L 28.828125 -60.0625 L 28.953125 -59.21875 L 10.25 -53.1875 L 11 -42.21875 L 11.828125 -42.34375 L 33.8125 -48.875 L 34.734375 -48.15625 L 34.859375 -47.328125 L 33.1875 -47.125 L 33.359375 -46.296875 L 39.296875 -46.234375 L 39.40625 -45.40625 C 38.851562 -42.070312 31.503906 -37.914062 17.359375 -32.9375 L 9.15625 -30.90625 L 10.09375 -30.25 L 8.328125 -18.96875 L 7.5 -18.796875 L 6.421875 -26.28125 L 5.609375 -26.15625 L 6.40625 -14.390625 C 22.375 -20.066406 33.796875 -23.394531 40.671875 -24.375 L 44.921875 -24.109375 L 45.21875 -22.453125 L 43.5625 -22.203125 L 44.453125 -21.5 L 44.84375 -18.984375 C 43.695312 -16.597656 40.519531 -15.015625 35.3125 -14.234375 L 35.4375 -13.40625 L 42.125 -14.375 L 42.328125 -12.6875 L 5.21875 1.015625 L 4.390625 1.140625 C 1.617188 1.117188 0.113281 0.546875 -0.125 -0.578125 L -0.15625 -0.71875 L -0.53125 -3.21875 L -0.140625 -12.625 L -1.09375 -13.328125 L 0.546875 -13.609375 L 1.140625 -9.453125 L 1.984375 -9.53125 C 1.722656 -12.332031 2.085938 -13.789062 3.078125 -13.90625 L 2.109375 -14.65625 L 0.953125 -22.953125 L -0.734375 -22.75 L -0.96875 -18.453125 L -0.203125 -19.421875 L 0.640625 -19.5625 L 1.3125 -14.546875 L 0.484375 -14.46875 L 0.109375 -16.921875 L -0.71875 -16.796875 L -0.46875 -15.109375 L -1.3125 -14.984375 L -1.5625 -16.65625 L -1.875 -31.109375 L -2.703125 -30.984375 L -1.65625 -35.359375 L -2.625 -36.0625 L -2.734375 -36.890625 L -3.875 -51.171875 L -2.921875 -50.453125 L -2.109375 -50.578125 L -2.34375 -52.265625 L -3.75 -56.296875 L -4.015625 -63.921875 L -4.375 -66.4375 L -3.53125 -66.5 L -2.578125 -65.796875 L -1.890625 -66.75 L -1.03125 -66.84375 L -0.078125 -66.171875 L 0.625 -67.140625 L 3.125 -67.46875 Z M -1.671875 -29.4375 L -0.84375 -23.59375 L -0.015625 -23.71875 L -0.8125 -29.515625 Z M 25.703125 -34.09375 L 26.53125 -34.265625 L 26.609375 -33.4375 L 12.015625 -28.78125 L 11.0625 -29.546875 L 10.9375 -30.328125 L 18.328125 -32.25 L 18.453125 -31.421875 Z M 25.703125 -34.09375 "/></g></g></g><g fill="#ffffff" fill-opacity="1"><g transform="translate(207.846744, 271.541463)"><g><path d="M 31.9375 -74.109375 L 36.46875 -72.1875 C 36.332031 -67.0625 34.734375 -64.28125 31.671875 -63.84375 L 10.375 -58.328125 L 10.609375 -56.65625 L 14.75 -57.234375 L 19.65625 -58.765625 L 20.609375 -58.015625 L 21.4375 -58.125 L 27.140625 -59.84375 L 28.828125 -60.0625 L 28.953125 -59.21875 L 10.25 -53.1875 L 11 -42.21875 L 11.828125 -42.34375 L 33.8125 -48.875 L 34.734375 -48.15625 L 34.859375 -47.328125 L 33.1875 -47.125 L 33.359375 -46.296875 L 39.296875 -46.234375 L 39.40625 -45.40625 C 38.851562 -42.070312 31.503906 -37.914062 17.359375 -32.9375 L 9.15625 -30.90625 L 10.09375 -30.25 L 8.328125 -18.96875 L 7.5 -18.796875 L 6.421875 -26.28125 L 5.609375 -26.15625 L 6.40625 -14.390625 C 22.375 -20.066406 33.796875 -23.394531 40.671875 -24.375 L 44.921875 -24.109375 L 45.21875 -22.453125 L 43.5625 -22.203125 L 44.453125 -21.5 L 44.84375 -18.984375 C 43.695312 -16.597656 40.519531 -15.015625 35.3125 -14.234375 L 35.4375 -13.40625 L 42.125 -14.375 L 42.328125 -12.6875 L 5.21875 1.015625 L 4.390625 1.140625 C 1.617188 1.117188 0.113281 0.546875 -0.125 -0.578125 L -0.15625 -0.71875 L -0.53125 -3.21875 L -0.140625 -12.625 L -1.09375 -13.328125 L 0.546875 -13.609375 L 1.140625 -9.453125 L 1.984375 -9.53125 C 1.722656 -12.332031 2.085938 -13.789062 3.078125 -13.90625 L 2.109375 -14.65625 L 0.953125 -22.953125 L -0.734375 -22.75 L -0.96875 -18.453125 L -0.203125 -19.421875 L 0.640625 -19.5625 L 1.3125 -14.546875 L 0.484375 -14.46875 L 0.109375 -16.921875 L -0.71875 -16.796875 L -0.46875 -15.109375 L -1.3125 -14.984375 L -1.5625 -16.65625 L -1.875 -31.109375 L -2.703125 -30.984375 L -1.65625 -35.359375 L -2.625 -36.0625 L -2.734375 -36.890625 L -3.875 -51.171875 L -2.921875 -50.453125 L -2.109375 -50.578125 L -2.34375 -52.265625 L -3.75 -56.296875 L -4.015625 -63.921875 L -4.375 -66.4375 L -3.53125 -66.5 L -2.578125 -65.796875 L -1.890625 -66.75 L -1.03125 -66.84375 L -0.078125 -66.171875 L 0.625 -67.140625 L 3.125 -67.46875 Z M -1.671875 -29.4375 L -0.84375 -23.59375 L -0.015625 -23.71875 L -0.8125 -29.515625 Z M 25.703125 -34.09375 L 26.53125 -34.265625 L 26.609375 -33.4375 L 12.015625 -28.78125 L 11.0625 -29.546875 L 10.9375 -30.328125 L 18.328125 -32.25 L 18.453125 -31.421875 Z M 25.703125 -34.09375 "/></g></g></g><g fill="#ffffff" fill-opacity="1"><g transform="translate(253.638539, 261.861473)"><g><path d="M 3.75 -68.59375 L 13.625 -70.6875 C 25.613281 -70.96875 32.421875 -67.25 34.046875 -59.53125 L 35.09375 -54.59375 L 29.296875 -41.328125 L 30.109375 -41.515625 L 36.78125 -50.65625 L 37.125 -49.015625 C 35.644531 -42.160156 32.953125 -37.289062 29.046875 -34.40625 L 24.453125 -31.71875 L 25.15625 -28.4375 C 26.34375 -28.6875 33.601562 -22.765625 46.9375 -10.671875 C 49.320312 -10.242188 51.984375 -8.515625 54.921875 -5.484375 L 55.09375 -4.65625 L 50.296875 -7.09375 L 50.46875 -6.28125 C 53.820312 -3.945312 55.65625 -2.035156 55.96875 -0.546875 L 55.140625 -0.375 L 51.5625 2.953125 L 50.734375 3.140625 L 48.5625 1.015625 L 47.90625 2.015625 L 47.09375 2.1875 C 34.21875 -4.457031 24.617188 -11.882812 18.296875 -20.09375 L 12.4375 -27.453125 C 10.5 -27.046875 10.101562 -23.523438 11.25 -16.890625 C 12.757812 -11.472656 13.191406 -8.078125 12.546875 -6.703125 C 11.222656 -5.023438 11.222656 -3.644531 12.546875 -2.5625 L 12.90625 -0.90625 L 10.453125 -0.375 C 9.347656 -0.144531 8.5625 -1.128906 8.09375 -3.328125 L 7.265625 -3.15625 C 7.734375 -0.957031 6.875 0.0820312 4.6875 -0.03125 L 0.046875 -4.09375 L -0.578125 -11.8125 L -1.28125 -15.109375 L -1.21875 -39.203125 L -0.390625 -39.375 L 0.3125 -36.078125 L 1.140625 -36.25 L 1.59375 -54.40625 C 0.5 -54.164062 0.179688 -52.945312 0.640625 -50.75 L -0.171875 -50.578125 L -0.515625 -52.21875 L -5.453125 -51.171875 L -5.625 -52 C -5.851562 -53.101562 -4.378906 -54.273438 -1.203125 -55.515625 L -1.375 -56.328125 L -3.03125 -55.984375 L -7.625 -53.3125 L -8.453125 -53.140625 C -8.679688 -54.222656 -7.695312 -54.992188 -5.5 -55.453125 L -5.6875 -56.28125 C -7.882812 -55.820312 -9.15625 -56.421875 -9.5 -58.078125 Z M 10.84375 -39.15625 L 11.671875 -39.328125 C 19.410156 -45.273438 24.507812 -50.941406 26.96875 -56.328125 L 26.625 -57.96875 C 26.226562 -59.84375 22.53125 -61.066406 15.53125 -61.640625 L 10.953125 -58.9375 Z M 22.953125 -63.203125 C 24.578125 -60.941406 25.960938 -59.804688 27.109375 -59.796875 L 26.765625 -61.4375 Z M 28.9375 -59.3125 L 28.984375 -55.03125 L 29.8125 -55.203125 L 30.453125 -56.203125 L 29.75 -59.484375 Z M -1 -50.40625 L -0.171875 -50.578125 L 0.359375 -48.109375 L 0.21875 -44.65625 L -0.609375 -44.484375 L -1.125 -46.9375 Z M 27.671875 -53.03125 L 24.78125 -46.40625 L 25.609375 -46.578125 L 28.671875 -52.390625 L 28.5 -53.203125 Z M 36.25 -53.125 L 37.890625 -53.46875 L 37.609375 -50.828125 L 36.78125 -50.65625 Z M -1.078125 -42.65625 L -0.25 -42.828125 L 0.4375 -39.546875 L -0.390625 -39.375 Z M -0.46875 -31.59375 L 0.234375 -28.3125 L 1.046875 -28.5 L 0.34375 -31.78125 Z M 29.4375 -12.125 L 29.609375 -11.3125 L 33.609375 -8.71875 C 32.015625 -10.976562 30.625 -12.113281 29.4375 -12.125 Z M 34.78125 -7.25 L 34.953125 -6.421875 L 38.765625 -4.65625 L 38.59375 -5.484375 Z M 34.78125 -7.25 "/></g></g></g></svg>