<svg width="375" height="374.999991" xmlns="http://www.w3.org/2000/svg" version="1.0" preserveAspectRatio="xMidYMid meet" zoomAndPan="magnify">
 <defs>
  <g id="svg_1"/>
 </defs>
 <g>
  <title>Layer 1</title>
  <g id="svg_2" fill="#ffffff">
   <g id="svg_3">
    <g id="svg_4">
     <path fill="#000000" id="svg_5" d="m84.51933,123.5412l2.46875,-0.53125l1.6875,3.9375c1.65625,-0.34375 2.3125,-1.33594 1.96875,-2.98438l0.8125,-0.17187l1.98438,1.29687l0.23437,5.09375l0.8125,-0.15625l-0.64062,0.98438l0.17187,0.82812l0.98438,0.67188l0.17187,0.8125l-0.8125,0.15625l1,0.67187l0.17188,0.8125l4.92187,27.32813l0.17188,0.82812l0.8125,-0.15625l0.75,-8.78125l1.64062,-0.34375l-2.46875,16.85938l1.64063,-0.34375l3.96875,-30.0625l-1.64063,0.34375l-1.03125,11.39062l-1.64062,0.34375l-0.1875,-0.8125l2.98437,-14.40625l0.8125,-0.17187l0.34375,1.65625l6.25,-3.04688c2.36328,0.35547 3.63281,0.94922 3.8125,1.78125l0.64063,-1l2.46875,-0.51562l7.48437,19.04687l0.82813,-0.17187c-0.52344,-2.45703 0.80468,-17.50391 3.98437,-45.14063l0.82813,-0.1875l1.34375,2.3125l0.82812,-0.17187l-0.34375,-1.65625l0.82813,-0.17188c4.0625,-0.86328 6.42578,-0.5039 7.09375,1.07813l0.34375,1.64062l-1.10938,2.82813l0.17188,0.8125l1.625,-0.34375l-0.39063,-5.92188l1.65625,-0.34375l2.01563,1.26563l0.17187,0.82812l-5.09375,68.60938l-2.28125,1.3125l-0.34375,-1.625l-0.65625,1l-0.82812,0.17187l-1,-0.64062c0.46875,2.1875 -0.1211,3.45312 -1.76563,3.79687c-4.46875,0.54297 -6.83984,0.1875 -7.10937,-1.0625l0.82812,-0.17187c-1.13672,-2.64453 -2.64062,-4.33594 -4.51562,-5.07813l-7.125,-17.42187c-0.92969,0.24219 -2.59375,8.625 -5,25.15625l-3.23438,4.96875l-0.82812,0.17187l-1.53125,-3.09375c5.46875,-15.66406 7.59765,-27.30078 6.39062,-34.90625c-1.14844,1.77344 -2.96875,10.75782 -5.46875,26.95313c-0.6875,0.14844 -1.08984,3.66797 -1.20312,10.5625l-7.40625,1.57813l-1.53125,-3.10938l-0.65625,1l-0.8125,0.17187c-0.625,-2.97656 -1.91407,-5 -3.85938,-6.0625l-0.6875,-3.28125l3.79688,1.75l-4.59376,-13.64062l0.64063,-1l-1,-0.65625l0.65625,-1l-0.82813,0.17187l0.65625,-0.96875l-2.4375,-11.53125l-0.04687,-4.28125l-0.8125,0.17188l0.625,-1l-4.51563,-21.40625l-0.98437,-0.64063l-0.17188,-0.82812l2.10938,-2.15625zm48.4375,-9.84375c-2.77344,26.91797 -3.83594,41.90625 -3.1875,44.96875l0.17188,0.82812l0.82812,-0.17187l3.84375,-45.98438l-1.65625,0.35938zm5.25,32l-0.0625,7.76562l0.17188,0.82813l0.82812,-0.17188l0.0625,-7.76562l-0.17187,-0.82813l-0.82813,0.17188zm-0.75,20.79687l-0.07812,7.76563l0.34375,1.65625l0.82812,-0.17188l-0.10937,-8.59375l-0.17188,-0.82812l-0.8125,0.17187zm0,0"/>
    </g>
   </g>
  </g>
  <g id="svg_6" fill="#ffffff">
   <g id="svg_7">
    <g id="svg_8">
     <path fill="#000000" id="svg_9" d="m158.74376,110.02344c0.20703,1.67969 1.41015,2.28125 3.60937,1.8125l2.20313,2.98437l-0.70313,0.98438l0.82813,-0.17188c-1.49219,12.46094 -1.0586,26.41407 1.29687,41.85938l0.76563,5l1,0.64062l0.125,0.82813l-0.70313,1.01562l0.8125,-0.17187l-0.6875,1.01562l1.70313,5.65625l0.25,1.64063c-2.17969,4.1875 -3.13282,7.26563 -2.85938,9.23438l-3.28125,0.6875l-4.32812,-0.8125l-0.04688,-6.01563l-3.85937,-2.60938l-1.10938,-12.67187l-2.29688,-15l1.26563,-2.82813l-0.5,-3.32812l-0.95313,-0.65625l-0.125,-0.84375l1.65625,-0.34375l-0.125,-0.82813l-0.95312,-0.67187l0.03125,-16.32813l-0.82813,0.17188l0.70313,-1.01563l-0.79688,-4.98437l-0.95312,-0.67188l-0.10938,-0.8125l8.96876,-2.76562zm-5.96876,16.73437l0.92188,5.82813l0.82813,-0.17188l-0.93751,-5.82812l-0.8125,0.17187zm0.45313,8.48438l0.76562,5l0.82813,-0.17188l-0.76562,-5l-0.82813,0.17188zm0.32812,7.6875l0.78126,4.98437l0.82812,-0.17187l-0.78125,-4.98438l-0.82813,0.17188zm6.81251,32.9375l0.625,4.15625l1.34375,-1.98438l-0.32813,-2.51562l-1.64062,0.34375zm0,0"/>
    </g>
   </g>
  </g>
  <g id="svg_10" fill="#ffffff">
   <g id="svg_11">
    <g id="svg_12">
     <path fill="#000000" id="svg_13" d="m171.93461,106.4246c1.09376,-0.22656 1.98829,1.30469 2.68751,4.59375l1.64062,-0.34375l2.125,-2.17187l1,0.64062l5.625,46.95313c3.13281,-2.38281 12.05078,-6.27344 26.75,-11.67188l0.82813,-0.1875l0.17187,0.82813c-18.53125,7.1875 -27.60547,11.6875 -27.21875,13.5l8.51563,-4.375l0.17187,0.82812l14.95313,-6.60937l0.17187,0.82812l0.64063,-1l0.82812,-0.17187l1,0.65625l3.9375,-1.70313l3.29688,-0.70312l5.9375,-0.39063l0.17187,0.8125c0.35156,1.65625 -3.47656,3.90625 -11.48437,6.75l0.17187,0.8125l0.65625,-1l0.82813,-0.17187l5.9375,-0.40625l0.64062,-0.98438l0.51563,2.46875l-25.76563,12.32813l-15.89062,10.21875l-2.46875,0.53125l-4.15625,-3.42188l-0.8125,0.17188l-0.1875,-0.82813c-0.28907,-1.38281 0.6289,-2.42968 2.76562,-3.14062l-0.51562,-2.48438l-3.17188,-2.76562l-4.53125,-37.71875l0.82812,-0.17188l0.70313,3.28125l0.39062,5.9375l1.64063,-0.35937l0.60937,11.0625l1,0.64062l-0.125,3.46875l0.87501,4.125l0.82812,-0.17187l-5.9375,-44.32813c1.10547,-0.22656 1.48047,-1.16406 1.125,-2.8125l0.64062,-0.98437l1.65625,-0.35938zm0,0"/>
    </g>
   </g>
  </g>
  <g id="svg_14" fill="#ffffff">
   <g id="svg_15">
    <g id="svg_16">
     <path fill="#000000" id="svg_17" d="m218.8877,96.7561l3.28125,-0.70313l2.84375,1.125l5.57813,-2.04687c9.51953,-2.01953 19.45312,1.60937 29.79687,10.89062l5.85938,7.35938l-0.64063,1l1.67188,3.9375l0.875,4.125c2.97656,14.10547 -6.28125,27.23437 -27.78125,39.39062l-8.04688,2.56251c-0.29297,-1.38282 -1.55859,-1.97266 -3.79687,-1.76563l0.6875,3.28125l-2.48438,0.53125l-1.03125,-4.9375l-1,-0.64063l0.64063,-1l-0.17188,-0.82812c-3.77344,-1.5625 -5.82031,-3.12891 -6.15625,-4.70313c-3.59375,-25.20703 -4.67578,-43.89843 -3.25,-56.07812l0.82812,-0.17188l1,0.65625l1.29688,-1.98437zm-1.5625,8.92187l0.9375,24.73438l0.17187,0.82812l0.82813,-0.17187l-0.76563,-23.92188l-0.34375,-1.64062l-0.82812,0.17187zm14.40625,2.98438c0.22656,1.08594 -0.75781,1.85937 -2.95312,2.32812c-0.08594,10.46875 0.70312,22.33985 2.35937,35.60938c3.20703,-0.66406 10.85938,-5.14844 22.95313,-13.45313l-0.17188,-0.82812l-1.64062,0.35937c3.4375,-5.40625 4.64453,-10.53125 3.625,-15.375l-0.53125,-2.46875c-1.27344,-6.03906 -6.13672,-8.73437 -14.59375,-8.07812l-9.04688,1.90625zm16.45313,-3.48438l0.17187,0.8125l3.64063,0.95313l-0.17188,-0.82813l-2.82812,-1.10937l-0.8125,0.17187zm9.84375,9.9375l1.25,10.04688l1.65625,-0.34375l-0.51563,-2.45313l0.125,-3.46875l-1.6875,-3.95312l-0.82812,0.17187zm7.15625,5.375l-1.32813,14.04688l0.17188,0.8125l0.8125,-0.17188l1.5,-13.21875l-0.34375,-1.64062l-0.8125,0.17187zm-7.01563,7.51563l-0.95312,3.625l0.82812,-0.17188l0.9375,-3.64062l-0.8125,0.1875zm-1.8125,15.84375c1.25,-0.46875 2.81641,-2.51953 4.70313,-6.15625l-0.17188,-0.82813l-4.53125,6.98438zm-17.89062,8.9375l0.17187,0.8125l3.3125,-0.6875l3.76563,-2.51563l-0.1875,-0.82812l-0.82813,0.17187l-6.23437,3.04688zm-6.39063,2.20312l1.3125,2.29688l1.65625,-0.34375l1.3125,-1.98438l-0.17187,-0.82812l-0.82813,0.17187l-2.3125,1.34375l-0.96875,-0.65625zm-8.03125,6.85938l0.82813,-0.17188l0.17187,0.82813l-1.28125,1.98438l-0.82812,0.17187l-0.17188,-0.8125l1.28125,-2zm0,0"/>
    </g>
   </g>
  </g>
  <g id="svg_18" fill="#ffffff">
   <g id="svg_19">
    <g id="svg_20">
     <path fill="#000000" id="svg_21" d="m127.28175,218.64569l4.23438,0.40625l0.07812,0.84375l-4.15625,0.40625l-0.15625,-1.65625zm-15.75,3.21875l2.6875,1.45313l7.375,-2.42188l0.90625,0.76563l0.85938,-0.0625l2.40625,-1.0625c9.4375,-0.98828 17.07031,2.17969 22.90625,9.5c1.11328,-0.09375 1.8125,1.24609 2.09375,4.01562l0.59375,5.89063l-1.6875,0.15625l-0.09375,-0.85938l0.625,-2.59375l-0.90625,-0.76562l0.71875,-0.92188l-0.92188,-0.76562l-1.625,0.21875c0.30078,3.19922 -2.15234,7.10156 -7.35937,11.70312l0.07812,0.84375l0.84375,-0.125c2.125,-0.1875 4.78906,-1.84765 8,-4.98437l0.20313,1.6875l-3.75,5.42187c3.10156,-0.30078 8.57031,3.65625 16.40625,11.875c0.61328,6.13672 -7.03125,14.22657 -22.9375,24.26563c-6.625,5.14844 -11.98438,7.92969 -16.07813,8.35938l-1.85937,-1.60938l-0.82813,0.14062c0.1875,1.68751 -0.84375,2.62501 -3.09375,2.81251c0.13281,1.5625 -0.25,2.4414 -1.15625,2.64062l-0.29687,0.0625c-1.13672,0.11328 -1.875,-1.78125 -2.21875,-5.6875l-0.84375,0.125l-0.42188,4.21875l-0.82812,0.07813c-0.5625,-5.53907 -1.6875,-8.21876 -3.375,-8.03126l-1.14063,-3.29687l0.76562,-0.92188l-0.98437,-0.75l0.65625,-36.46875l-0.92188,-0.70312l0.85938,-0.07813l-0.92188,-0.70312l-0.39062,-12.67188l-0.125,-0.82812l-2.26563,-5.70313l0.8125,-0.10937c2.71094,-2.33203 4.93751,-3.67969 6.68751,-4.04688c0.1875,-0.03906 0.36718,-0.0625 0.54687,-0.0625zm21.75,6.3125l0.09375,0.84375l6.8125,0.20313c-0.13672,-1.125 -1.02734,-1.60156 -2.67187,-1.4375l-4.23438,0.39062zm-14.07812,11.51563l1.46875,5.76562l7.34375,-2.40625l0.1875,1.67188l11.03125,-7.82813l0.09375,0.82813l-5.35938,5.59375c6.40625,-3.3125 9.39453,-7.26563 8.96875,-11.85938l-1.6875,0.14063c0.25781,2.78125 -0.4375,4.26562 -2.09375,4.45312l-0.20312,-1.67187l-0.84375,0.10937l0.625,-2.64062l0.90625,0.75l0.85937,-0.01563l-0.07812,-0.84375c-2.40625,-1.48828 -5.85547,-1.99218 -10.34375,-1.51562c-7.80469,0.74219 -11.42969,3.89844 -10.875,9.46875zm18.90625,-5.20313l0.14062,0.82813l-1.5625,1.8125l-0.8125,0.10937l2.23438,-2.75zm0.35937,20.26563l0.10938,0.78125l8.40625,0.04687l0.8125,-0.125l-0.0625,-0.85937l-3.4375,-0.46875l-5.82813,0.625zm-17.89062,6.79687l0.625,15.15625l0.90625,0.76563l0.84375,-0.07813c4.03906,-0.375 12.23828,-5.69531 24.59375,-15.96875l1.54687,-1.84375c-0.57422,-2.19531 -2.91797,-3.08203 -7.03125,-2.65625l-6.70312,0.60938l-14.78125,4.01562zm30.10937,-3.01562l-1.3125,3.57812l3.09375,-2.84375l-0.9375,-0.75l-0.84375,0.01563zm6.20313,2.78125c0.16406,1.76172 -4.38672,7.00781 -13.65625,15.73437c11.10156,-7.40625 16.5039,-12.4375 16.20312,-15.09375l-0.82812,0.0625l-0.875,-0.78125l-0.84375,0.07813zm0,0"/>
    </g>
   </g>
  </g>
  <g id="svg_22" fill="#ffffff">
   <g id="svg_23">
    <g id="svg_24">
     <path fill="#000000" id="svg_25" d="m193.99245,207.11209l4.53125,1.92188c-0.13672,5.125 -1.73437,7.90625 -4.79687,8.34375l-21.29688,5.51562l0.23438,1.67188l4.14062,-0.57813l4.90625,-1.53125l0.95313,0.75l0.82812,-0.10937l5.70313,-1.71875l1.6875,-0.21875l0.125,0.84375l-18.70313,6.03125l0.75,10.96875l0.82813,-0.125l21.98437,-6.53125l0.92188,0.71875l0.125,0.82812l-1.67188,0.20313l0.17188,0.82812l5.9375,0.0625l0.10937,0.82813c-0.55469,3.33594 -7.90234,7.49219 -22.04687,12.46875l-8.20313,2.03125l0.9375,0.65625l-1.76562,11.28125l-0.82813,0.17187l-1.07812,-7.48437l-0.8125,0.125l0.79687,11.76562c15.96875,-5.67578 27.39063,-9.0039 34.26563,-9.98437l4.25,0.26562l0.29687,1.65625l-1.65625,0.25l0.89063,0.70313l0.39062,2.51562c-1.14844,2.38672 -4.32422,3.96875 -9.53125,4.75l0.125,0.82813l6.6875,-0.96875l0.20313,1.6875l-37.10938,13.70313l-0.82812,0.125c-2.77344,-0.02344 -4.27735,-0.59375 -4.51563,-1.71876l-0.03125,-0.14062l-0.375,-2.5l0.39062,-9.40625l-0.95312,-0.70313l1.64063,-0.28125l0.59375,4.15625l0.84375,-0.07812c-0.26172,-2.80078 0.10156,-4.25781 1.09375,-4.375l-0.96875,-0.75l-1.15625,-8.29688l-1.68751,0.20313l-0.23437,4.29687l0.76562,-0.96875l0.84376,-0.14062l0.67187,5.01562l-0.82812,0.07813l-0.375,-2.45313l-0.82813,0.125l0.25,1.6875l-0.84375,0.125l-0.25,-1.67187l-0.3125,-14.45313l-0.82813,0.125l1.04688,-4.375l-0.96875,-0.70312l-0.10938,-0.82813l-1.14062,-14.28125l0.95312,0.71875l0.8125,-0.125l-0.23437,-1.6875l-1.40625,-4.03125l-0.26563,-7.625l-0.35937,-2.51562l0.84375,-0.0625l0.95312,0.70312l0.6875,-0.95312l0.85938,-0.09375l0.95312,0.67187l0.70313,-0.96875l2.5,-0.32812l28.8125,-6.64063zm-33.60938,44.67188l0.82813,5.84375l0.82812,-0.125l-0.79687,-5.79688l-0.85938,0.07813zm27.37501,-4.65625l0.82812,-0.17188l0.07813,0.82813l-14.59375,4.65625l-0.95313,-0.76563l-0.125,-0.78125l7.39063,-1.92187l0.125,0.82812l7.25,-2.67187zm0,0"/>
    </g>
   </g>
  </g>
  <g id="svg_26" fill="#ffffff">
   <g id="svg_27">
    <g id="svg_28">
     <path fill="#000000" id="svg_29" d="m239.78424,197.43209l4.53125,1.92188c-0.13672,5.125 -1.73437,7.90625 -4.79687,8.34375l-21.29688,5.51562l0.23438,1.67188l4.14062,-0.57813l4.90625,-1.53125l0.95313,0.75l0.82812,-0.10937l5.70313,-1.71875l1.6875,-0.21875l0.125,0.84375l-18.70313,6.03125l0.75,10.96875l0.82813,-0.125l21.98437,-6.53125l0.92188,0.71875l0.125,0.82812l-1.67188,0.20313l0.17188,0.82812l5.9375,0.0625l0.10937,0.82813c-0.55469,3.33594 -7.90234,7.49219 -22.04687,12.46875l-8.20313,2.03125l0.9375,0.65625l-1.76562,11.28125l-0.82813,0.17187l-1.07812,-7.48437l-0.8125,0.125l0.79687,11.76562c15.96875,-5.67578 27.39063,-9.0039 34.26563,-9.98437l4.25,0.26562l0.29687,1.65625l-1.65625,0.25l0.89063,0.70313l0.39062,2.51562c-1.14844,2.38672 -4.32422,3.96875 -9.53125,4.75l0.125,0.82813l6.6875,-0.96875l0.20313,1.6875l-37.10938,13.70313l-0.82812,0.125c-2.77344,-0.02344 -4.27735,-0.59375 -4.51563,-1.71876l-0.03125,-0.14062l-0.375,-2.5l0.39062,-9.40625l-0.95312,-0.70313l1.64063,-0.28125l0.59375,4.15625l0.84375,-0.07812c-0.26172,-2.80078 0.10156,-4.25781 1.09375,-4.375l-0.96875,-0.75l-1.15625,-8.29688l-1.68751,0.20313l-0.23437,4.29687l0.76562,-0.96875l0.84376,-0.14062l0.67187,5.01562l-0.82812,0.07813l-0.375,-2.45313l-0.82813,0.125l0.25,1.6875l-0.84375,0.125l-0.25,-1.67187l-0.3125,-14.45313l-0.82813,0.125l1.04688,-4.375l-0.96875,-0.70312l-0.10938,-0.82813l-1.14062,-14.28125l0.95312,0.71875l0.8125,-0.125l-0.23437,-1.6875l-1.40625,-4.03125l-0.26563,-7.625l-0.35937,-2.51562l0.84375,-0.0625l0.95312,0.70312l0.6875,-0.95312l0.85938,-0.09375l0.95312,0.67187l0.70313,-0.96875l2.5,-0.32812l28.8125,-6.64063zm-33.60938,44.67188l0.82813,5.84375l0.82812,-0.125l-0.79687,-5.79688l-0.85938,0.07813zm27.37501,-4.65625l0.82812,-0.17188l0.07813,0.82813l-14.59375,4.65625l-0.95313,-0.76563l-0.125,-0.78125l7.39063,-1.92187l0.125,0.82812l7.25,-2.67187zm0,0"/>
    </g>
   </g>
  </g>
  <g id="svg_30" fill="#ffffff">
   <g id="svg_31">
    <g id="svg_32">
     <path fill="#000000" id="svg_33" d="m257.38853,193.26773l9.875,-2.09375c11.98828,-0.28125 18.79688,3.4375 20.42188,11.15625l1.04687,4.9375l-5.79687,13.26562l0.8125,-0.1875l6.67187,-9.14062l0.34375,1.64062c-1.48047,6.85547 -4.17187,11.72657 -8.07812,14.60938l-4.59375,2.6875l0.70312,3.28125c1.1875,-0.25 8.44531,5.67187 21.78125,17.76562c2.38281,0.42969 5.04688,2.15625 7.98438,5.1875l0.17187,0.82813l-4.79687,-2.4375l0.17187,0.8125c3.35156,2.33594 5.1875,4.24609 5.5,5.73437l-0.82812,0.17188l-3.57813,3.32813l-0.82812,0.1875l-2.17188,-2.125l-0.65625,1l-0.8125,0.17187c-12.875,-6.64453 -22.47656,-14.07031 -28.79687,-22.28125l-5.85938,-7.35938c-1.9375,0.40625 -2.33594,3.92969 -1.1875,10.5625c1.50781,5.41797 1.94141,8.8125 1.29688,10.1875c-1.32422,1.67969 -1.32422,3.0586 0,4.14063l0.35937,1.65625l-2.45312,0.53125c-1.10547,0.23047 -1.89063,-0.75391 -2.35938,-2.95313l-0.82812,0.17188c0.46875,2.19922 -0.39063,3.23828 -2.57813,3.125l-4.64062,-4.0625l-0.62501,-7.71875l-0.70312,-3.29688l0.0625,-24.09375l0.82812,-0.17187l0.70313,3.29687l0.82813,-0.17187l0.45312,-18.15625c-1.09375,0.24219 -1.41406,1.46094 -0.95312,3.65625l-0.81251,0.17187l-0.34375,-1.64062l-4.9375,1.04687l-0.17187,-0.82812c-0.22656,-1.10156 1.24609,-2.27344 4.42187,-3.51563l-0.17187,-0.8125l-1.65625,0.34375l-4.59375,2.67188l-0.82813,0.17187c-0.22656,-1.08203 0.75782,-1.85156 2.95313,-2.3125l-0.1875,-0.82812c-2.19531,0.46094 -3.46875,-0.14063 -3.8125,-1.79688l13.25,-10.51562zm7.09375,29.4375l0.82813,-0.17188c7.73828,-5.94531 12.83593,-11.61328 15.29687,-17l-0.34375,-1.64062c-0.39844,-1.875 -4.09375,-3.09766 -11.09375,-3.67188l-4.57812,2.70313l-0.10938,19.78125zm12.10938,-24.04688c1.625,2.26172 3.00781,3.39844 4.15625,3.40625l-0.34375,-1.64062l-3.8125,-1.76563zm5.98437,3.89063l0.04688,4.28125l0.82812,-0.17188l0.64063,-1l-0.70313,-3.28125l-0.8125,0.17188zm-29.9375,8.90625l0.82812,-0.17188l0.53126,2.46875l-0.14063,3.45313l-0.82813,0.17187l-0.51562,-2.45312l0.125,-3.46875zm28.67188,-2.625l-2.89063,6.625l0.82813,-0.17188l3.0625,-5.8125l-0.17188,-0.8125l-0.82812,0.17188zm8.57812,-0.09375l1.64063,-0.34375l-0.28125,2.64062l-0.82813,0.17188l-0.53125,-2.46875zm-37.32813,10.46875l0.82813,-0.17188l0.6875,3.28125l-0.82813,0.17188l-0.6875,-3.28125zm0.60938,11.0625l0.70313,3.28125l0.8125,-0.1875l-0.70313,-3.28125l-0.8125,0.1875zm29.90625,19.46875l0.17188,0.8125l4,2.59375c-1.59375,-2.25781 -2.98438,-3.39453 -4.17188,-3.40625zm5.34375,4.875l0.17188,0.82812l3.8125,1.76563l-0.17188,-0.82813l-3.8125,-1.76562zm0,0"/>
    </g>
   </g>
  </g>
 </g>
</svg>