<?xml version="1.0" standalone="no"?>
<!DOCTYPE svg PUBLIC "-//W3C//DTD SVG 20010904//EN"
 "http://www.w3.org/TR/2001/REC-SVG-20010904/DTD/svg10.dtd">
<svg version="1.0" xmlns="http://www.w3.org/2000/svg"
 width="700.000000pt" height="700.000000pt" viewBox="0 0 700.000000 700.000000"
 preserveAspectRatio="xMidYMid meet">
<metadata>
Created by potrace 1.14, written by Peter Selinger 2001-2017
</metadata>
<g transform="translate(0.000000,700.000000) scale(0.100000,-0.100000)"
fill="#000000" stroke="none">
<path d="M830 6558 c-180 -20 -307 -124 -372 -305 l-21 -58 0 -2455 c0 -1350
3 -2482 7 -2515 24 -216 105 -386 255 -533 143 -141 321 -227 515 -249 28 -3
769 -6 1646 -6 1185 0 1611 3 1658 12 287 54 511 222 641 479 36 71 68 169 77
232 3 23 7 49 9 58 2 9 4 140 4 290 l1 273 78 35 c42 19 86 39 97 44 11 5 225
100 475 211 250 110 487 217 525 236 243 122 439 349 520 606 29 88 29 89 44
187 13 79 14 1614 1 1680 -4 25 -11 61 -14 80 -3 19 -16 67 -29 105 -113 325
-351 563 -670 669 -136 45 -226 53 -638 53 -209 1 -382 3 -384 5 -3 2 -5 115
-5 251 -1 261 -7 301 -53 391 -49 95 -175 191 -284 217 -54 13 -3969 19 -4083
7z m1225 -1327 c49 -22 87 -60 112 -109 17 -35 18 -103 20 -1602 1 -1057 -2
-1578 -9 -1605 -31 -119 -151 -189 -267 -155 -52 15 -105 56 -132 103 l-24 42
0 1595 0 1595 24 42 c55 96 180 138 276 94z m882 -5 c64 -30 109 -89 119 -154
4 -26 7 -745 7 -1598 l0 -1551 -22 -46 c-80 -165 -308 -167 -393 -3 l-22 41 0
1585 0 1585 22 42 c57 109 177 151 289 99z m891 -6 c21 -12 53 -44 72 -72 l35
-51 1 -1581 c1 -1329 -1 -1587 -13 -1622 -27 -79 -122 -144 -211 -144 -72 0
-151 52 -187 123 l-25 51 0 1566 c0 989 4 1578 10 1599 39 136 195 200 318
131z m2214 -437 c23 -15 51 -44 62 -63 19 -34 20 -52 21 -765 0 -475 -3 -742
-10 -765 -14 -48 -70 -101 -136 -127 -30 -12 -191 -83 -359 -158 -168 -75
-320 -143 -337 -150 l-33 -14 0 1037 0 1037 375 -2 375 -1 42 -29z"/>
</g>
</svg>
