<svg xmlns="http://www.w3.org/2000/svg" version="1.1" xmlns:xlink="http://www.w3.org/1999/xlink" xmlns:svgjs="http://svgjs.com/svgjs" width="1440" height="560" preserveAspectRatio="none" viewBox="0 0 1440 560"><g mask="url(&quot;#SvgjsMask1026&quot;)" fill="none"><rect width="1440" height="560" x="0" y="0" fill="rgba(245, 227, 204, 1)"></rect><path d="M0,588.679C108.297,587.671,178.328,477.14,264.369,411.366C342.687,351.495,436.487,307.563,482.073,220.155C528.759,130.638,541.277,23.738,517.734,-74.439C495.171,-168.531,410.381,-228.338,355.426,-307.978C292.031,-399.849,265.214,-520.495,169.877,-578.548C64.571,-642.671,-71.293,-679.765,-187.504,-638.579C-302.892,-597.685,-352.751,-467.029,-424.555,-367.879C-489.88,-277.676,-588.536,-196.011,-588.667,-84.638C-588.796,25.324,-484.555,101.613,-425.214,194.189C-375.202,272.211,-335.492,353.288,-267.552,416.319C-188.172,489.964,-108.276,589.687,0,588.679" fill="#edcca3"></path><path d="M1440 1260.156C1570.499 1288.228 1719.05 1235.8980000000001 1814.224 1142.304 1905.741 1052.306 1892.038 905.7629999999999 1926.189 782.035 1954.281 680.26 1988.412 585.133 1997.058 479.907 2007.9450000000002 347.40999999999997 2061.237 196.959 1983.1 89.40100000000001 1905.262-17.74599999999998 1745.296-9.905999999999949 1617.094-43.125999999999976 1493.271-75.21100000000001 1370.191-131.12400000000002 1245.716-101.67200000000003 1118.492-71.56899999999996 1009.531 14.452999999999975 931.2370000000001 119.154 856.005 219.76 824.893 345.119 817.821 470.544 811.163 588.638 828.591 710.4639999999999 892.279 810.136 952.001 903.601 1070.9769999999999 930.446 1156.6770000000001 1000.8589999999999 1257.6390000000001 1083.8110000000001 1312.253 1232.676 1440 1260.156" fill="#fdfaf5"></path></g><defs><mask id="SvgjsMask1026"><rect width="1440" height="560" fill="#ffffff"></rect></mask></defs></svg>