<svg xmlns="http://www.w3.org/2000/svg" version="1.1" xmlns:xlink="http://www.w3.org/1999/xlink" xmlns:svgjs="http://svgjs.com/svgjs" width="1440" height="560" preserveAspectRatio="none" viewBox="0 0 1440 560"><g mask="url(&quot;#SvgjsMask1058&quot;)" fill="none"><rect width="1440" height="560" x="0" y="0" fill="rgba(199, 228, 193, 1)"></rect><path d="M0,448.993C109.861,449.14,216.506,535.568,319.335,496.895C425.506,456.965,494.922,350.675,539.152,246.223C582.702,143.377,578.42,29.66,564.089,-81.104C549.588,-193.186,535.005,-314.296,456.156,-395.262C378.538,-474.964,255.217,-474.351,148.976,-507.365C40.739,-541,-64.479,-621.885,-173.514,-590.933C-282.632,-559.958,-340.672,-444.227,-404.281,-350.312C-461.442,-265.918,-498.34,-174.115,-522.841,-75.173C-549.784,33.629,-591.347,147.284,-553.64,252.839C-514.945,361.161,-427.21,457.63,-318.788,496.044C-215.448,532.657,-109.634,448.847,0,448.993" fill="#aad6a1"></path><path d="M1440 1203.752C1556.387 1181.304 1655.613 1110.734 1741.306 1028.841 1815.84 957.6120000000001 1851.075 861.048 1895.804 768.159 1941.5529999999999 673.153 2012.2469999999998 583.86 2006.2759999999998 478.582 2000.127 370.172 1922.936 283.972 1863.201 193.29500000000002 1794.527 89.04899999999998 1742.535-34.59299999999996 1631.121-90.89800000000002 1511.935-151.13199999999995 1364.845-168.67700000000002 1239.8220000000001-121.745 1117.311-75.755 1038.81 42.42399999999998 973.653 155.90800000000002 916.862 254.82 911.718 368.834 893.51 481.427 874.942 596.247 839.283 708.955 865.907 822.179 896.1 950.5830000000001 943.5740000000001 1088.502 1053.4279999999999 1161.517 1163.614 1234.752 1310.09 1228.809 1440 1203.752" fill="#e4f2e1"></path></g><defs><mask id="SvgjsMask1058"><rect width="1440" height="560" fill="#ffffff"></rect></mask></defs></svg>