<svg xmlns="http://www.w3.org/2000/svg" version="1.1" xmlns:xlink="http://www.w3.org/1999/xlink" xmlns:svgjs="http://svgjs.com/svgjs" width="1440" height="560" preserveAspectRatio="none" viewBox="0 0 1440 560"><g mask="url(&quot;#SvgjsMask1041&quot;)" fill="none"><rect width="1440" height="560" x="0" y="0" fill="rgba(245, 238, 182, 1)"></rect><path d="M0,567.9C104.896,560.968,195.864,497.889,277.068,431.127C351.412,370.005,415.278,294.637,444.075,202.802C471.068,116.72,433.953,28.114,431.725,-62.073C429.117,-167.651,478.685,-278.831,429.865,-372.48C378.229,-471.53,272.659,-532.62,167.212,-569.471C58.496,-607.464,-64.227,-625.551,-171.03,-582.475C-274.662,-540.678,-346.225,-442.94,-395.355,-342.577C-437.686,-256.104,-423.278,-157.509,-426.17,-61.274C-428.72,23.591,-430.691,105.173,-411.294,187.831C-387.81,287.908,-377.144,399.608,-301.648,469.373C-222.355,542.646,-107.729,575.02,0,567.9" fill="#efe48d"></path><path d="M1440 1222.653C1561.741 1211.071 1631.29 1082.26 1725.62 1004.433 1807.327 937.02 1901.933 886.595 1956.9969999999998 796.105 2016.536 698.262 2053.7870000000003 586.833 2049.379 472.384 2044.688 350.598 2020.077 217.824 1931.499 134.113 1844.546 51.93700000000001 1704.614 82.394 1592.506 40.61400000000003 1468.256-5.692000000000007 1367.979-155.45000000000005 1239.19-123.89700000000005 1111.565-92.63 1061.408 64.92500000000001 1006.3299999999999 184.223 962.077 280.074 974.64 386.512 955.6 490.354 935.566 599.614 861.301 703.595 891.499 810.492 922.776 921.207 1025.203 993.207 1117.1779999999999 1062.32 1215.216 1135.989 1317.919 1234.268 1440 1222.653" fill="#fbf8df"></path></g><defs><mask id="SvgjsMask1041"><rect width="1440" height="560" fill="#ffffff"></rect></mask></defs></svg>