<svg xmlns="http://www.w3.org/2000/svg" version="1.1" xmlns:xlink="http://www.w3.org/1999/xlink" xmlns:svgjs="http://svgjs.com/svgjs" width="1440" height="560" preserveAspectRatio="none" viewBox="0 0 1440 560"><g mask="url(&quot;#SvgjsMask1277&quot;)" fill="none"><rect width="1440" height="560" x="0" y="0" fill="url(#SvgjsLinearGradient1278)"></rect><path d="M1440 0L1186.16 0L1440 98.08z" fill="rgba(255, 255, 255, .1)"></path><path d="M1186.16 0L1440 98.08L1440 322.11L845.8900000000001 0z" fill="rgba(255, 255, 255, .075)"></path><path d="M845.89 0L1440 322.11L1440 352.59000000000003L702.6 0z" fill="rgba(255, 255, 255, .05)"></path><path d="M702.6 0L1440 352.59000000000003L1440 448.76000000000005L576.9100000000001 0z" fill="rgba(255, 255, 255, .025)"></path><path d="M0 560L400.33 560L0 312.05z" fill="rgba(0, 0, 0, .1)"></path><path d="M0 312.05L400.33 560L695.69 560L0 167.47z" fill="rgba(0, 0, 0, .075)"></path><path d="M0 167.47000000000003L695.69 560L1004.74 560L0 128.82000000000002z" fill="rgba(0, 0, 0, .05)"></path><path d="M0 128.82000000000005L1004.74 560L1140.73 560L0 41.470000000000056z" fill="rgba(0, 0, 0, .025)"></path></g><defs><mask id="SvgjsMask1277"><rect width="1440" height="560" fill="#ffffff"></rect></mask><linearGradient x1="15.28%" y1="-39.29%" x2="84.72%" y2="139.29%" gradientUnits="userSpaceOnUse" id="SvgjsLinearGradient1278"><stop stop-color="rgba(236, 160, 62, 1)" offset="0"></stop><stop stop-color="rgba(236, 160, 62, 1)" offset="1"></stop></linearGradient></defs></svg>