<svg xmlns="http://www.w3.org/2000/svg" xmlns:xlink="http://www.w3.org/1999/xlink" width="1920" zoomAndPan="magnify" viewBox="0 0 1440 809.999993" height="1080" preserveAspectRatio="xMidYMid meet" version="1.0"><defs><clipPath id="385c80553b"><path d="M 0 0 L 1440 0 L 1440 279.75 L 0 279.75 Z M 0 0 " clip-rule="nonzero"/></clipPath><clipPath id="9983250e41"><path d="M 0 204.042969 L 1440 204.042969 L 1440 810 L 0 810 Z M 0 204.042969 " clip-rule="nonzero"/></clipPath></defs><g clip-path="url(#385c80553b)"><path fill="#ffffff" d="M 719.992188 0 L 1789.847656 106.855469 L 1381.199219 279.75 L 58.785156 279.75 L -349.863281 106.855469 L 719.992188 0 " fill-opacity="1" fill-rule="nonzero"/></g><g clip-path="url(#9983250e41)"><path fill="#ffffff" d="M 14.929688 204.046875 L 1532.164062 204.046875 C 1542.3125 204.046875 1552.042969 208.074219 1559.214844 215.246094 C 1566.390625 222.414062 1570.421875 232.140625 1570.421875 242.28125 L 1570.421875 833.308594 C 1570.421875 843.449219 1566.390625 853.175781 1559.214844 860.34375 C 1552.042969 867.515625 1542.3125 871.542969 1532.164062 871.542969 L 14.929688 871.542969 C 4.78125 871.542969 -4.949219 867.515625 -12.125 860.34375 C -19.296875 853.175781 -23.328125 843.449219 -23.328125 833.308594 L -23.328125 242.28125 C -23.328125 232.140625 -19.296875 222.414062 -12.125 215.246094 C -4.949219 208.074219 4.78125 204.046875 14.929688 204.046875 " fill-opacity="1" fill-rule="nonzero"/></g></svg>